<svg width="16" height="16" viewBox="0 0 16 16" fill="none" xmlns="http://www.w3.org/2000/svg">
<path d="M9.66658 2.66602H6.33325L4.66659 4.66602H2.66659C2.31296 4.66602 1.97382 4.80649 1.72378 5.05654C1.47373 5.30659 1.33325 5.64573 1.33325 5.99935V11.9993C1.33325 12.353 1.47373 12.6921 1.72378 12.9422C1.97382 13.1922 2.31296 13.3327 2.66659 13.3327H13.3333C13.6869 13.3327 14.026 13.1922 14.2761 12.9422C14.5261 12.6921 14.6666 12.353 14.6666 11.9993V5.99935C14.6666 5.64573 14.5261 5.30659 14.2761 5.05654C14.026 4.80649 13.6869 4.66602 13.3333 4.66602H11.3333L9.66658 2.66602Z" stroke="#EDEDED" stroke-linecap="round" stroke-linejoin="round"/>
<path d="M8 10.666C9.10457 10.666 10 9.77059 10 8.66602C10 7.56145 9.10457 6.66602 8 6.66602C6.89543 6.66602 6 7.56145 6 8.66602C6 9.77059 6.89543 10.666 8 10.666Z" stroke="#EDEDED" stroke-linecap="round" stroke-linejoin="round"/>
</svg>
