<svg width="18" height="18" viewBox="0 0 18 18" fill="none" xmlns="http://www.w3.org/2000/svg">
<g clip-path="url(#clip0_199_7004)">
<path d="M7.45283 11.5217C7.38587 11.2621 7.25058 11.0252 7.06104 10.8357C6.8715 10.6462 6.63463 10.5109 6.37508 10.4439L1.77383 9.25742C1.69533 9.23514 1.62623 9.18786 1.57704 9.12275C1.52784 9.05765 1.50122 8.97827 1.50122 8.89667C1.50122 8.81507 1.52784 8.73569 1.57704 8.67059C1.62623 8.60548 1.69533 8.5582 1.77383 8.53592L6.37508 7.34867C6.63454 7.28178 6.87135 7.1466 7.06088 6.9572C7.25041 6.7678 7.38575 6.53109 7.45283 6.27167L8.63933 1.67042C8.66138 1.59161 8.70861 1.52218 8.77382 1.47272C8.83902 1.42326 8.91861 1.39648 9.00045 1.39648C9.08229 1.39648 9.16188 1.42326 9.22709 1.47272C9.29229 1.52218 9.33952 1.59161 9.36158 1.67042L10.5473 6.27167C10.6143 6.53122 10.7496 6.76809 10.9391 6.95763C11.1287 7.14718 11.3655 7.28246 11.6251 7.34942L16.2263 8.53517C16.3055 8.557 16.3752 8.60418 16.425 8.66948C16.4747 8.73478 16.5016 8.81459 16.5016 8.89667C16.5016 8.97875 16.4747 9.05856 16.425 9.12386C16.3752 9.18916 16.3055 9.23635 16.2263 9.25817L11.6251 10.4439C11.3655 10.5109 11.1287 10.6462 10.9391 10.8357C10.7496 11.0252 10.6143 11.2621 10.5473 11.5217L9.36083 16.1229C9.33877 16.2017 9.29154 16.2712 9.22634 16.3206C9.16113 16.3701 9.08154 16.3969 8.9997 16.3969C8.91786 16.3969 8.83827 16.3701 8.77307 16.3206C8.70787 16.2712 8.66063 16.2017 8.63858 16.1229L7.45283 11.5217Z" stroke="url(#paint0_linear_199_7004)" stroke-width="1.5" stroke-linecap="round" stroke-linejoin="round"/>
<path d="M7.45283 11.5217C7.38587 11.2621 7.25058 11.0252 7.06104 10.8357C6.8715 10.6462 6.63463 10.5109 6.37508 10.4439L1.77383 9.25742C1.69533 9.23514 1.62623 9.18786 1.57704 9.12275C1.52784 9.05765 1.50122 8.97827 1.50122 8.89667C1.50122 8.81507 1.52784 8.73569 1.57704 8.67059C1.62623 8.60548 1.69533 8.5582 1.77383 8.53592L6.37508 7.34867C6.63454 7.28178 6.87135 7.1466 7.06088 6.9572C7.25041 6.7678 7.38575 6.53109 7.45283 6.27167L8.63933 1.67042C8.66138 1.59161 8.70861 1.52218 8.77382 1.47272C8.83902 1.42326 8.91861 1.39648 9.00045 1.39648C9.08229 1.39648 9.16188 1.42326 9.22709 1.47272C9.29229 1.52218 9.33952 1.59161 9.36158 1.67042L10.5473 6.27167C10.6143 6.53122 10.7496 6.76809 10.9391 6.95763C11.1287 7.14718 11.3655 7.28246 11.6251 7.34942L16.2263 8.53517C16.3055 8.557 16.3752 8.60418 16.425 8.66948C16.4747 8.73478 16.5016 8.81459 16.5016 8.89667C16.5016 8.97875 16.4747 9.05856 16.425 9.12386C16.3752 9.18916 16.3055 9.23635 16.2263 9.25817L11.6251 10.4439C11.3655 10.5109 11.1287 10.6462 10.9391 10.8357C10.7496 11.0252 10.6143 11.2621 10.5473 11.5217L9.36083 16.1229C9.33877 16.2017 9.29154 16.2712 9.22634 16.3206C9.16113 16.3701 9.08154 16.3969 8.9997 16.3969C8.91786 16.3969 8.83827 16.3701 8.77307 16.3206C8.70787 16.2712 8.66063 16.2017 8.63858 16.1229L7.45283 11.5217Z" stroke="url(#paint1_linear_199_7004)" stroke-linecap="round" stroke-linejoin="round"/>
<path d="M15.0002 2.14648V5.14648" stroke="url(#paint2_linear_199_7004)" stroke-width="1.5" stroke-linecap="round" stroke-linejoin="round"/>
<path d="M16.5002 3.64648H13.5002" stroke="url(#paint3_linear_199_7004)" stroke-linecap="round" stroke-linejoin="round"/>
<path d="M3 12.75V14.25" stroke="url(#paint4_linear_199_7004)" stroke-linecap="round" stroke-linejoin="round"/>
<path d="M3.75024 13.3965H2.25024" stroke="url(#paint5_linear_199_7004)" stroke-linecap="round" stroke-linejoin="round"/>
</g>
<defs>
<linearGradient id="paint0_linear_199_7004" x1="1.50122" y1="8.89667" x2="16.5016" y2="8.89667" gradientUnits="userSpaceOnUse">
<stop stop-color="#EEA7FF"/>
<stop offset="0.5" stop-color="#7DA8FE"/>
<stop offset="1" stop-color="#6B72FF"/>
</linearGradient>
<linearGradient id="paint1_linear_199_7004" x1="1.50122" y1="8.89667" x2="16.5016" y2="8.89667" gradientUnits="userSpaceOnUse">
<stop stop-color="#EEA7FF"/>
<stop offset="0.5" stop-color="#7DA8FE"/>
<stop offset="1" stop-color="#6B72FF"/>
</linearGradient>
<linearGradient id="paint2_linear_199_7004" x1="15.0002" y1="3.64648" x2="16.0002" y2="3.64648" gradientUnits="userSpaceOnUse">
<stop stop-color="#EEA7FF"/>
<stop offset="0.5" stop-color="#7DA8FE"/>
<stop offset="1" stop-color="#6B72FF"/>
</linearGradient>
<linearGradient id="paint3_linear_199_7004" x1="13.5002" y1="4.14648" x2="16.5002" y2="4.14648" gradientUnits="userSpaceOnUse">
<stop stop-color="#EEA7FF"/>
<stop offset="0.5" stop-color="#7DA8FE"/>
<stop offset="1" stop-color="#6B72FF"/>
</linearGradient>
<linearGradient id="paint4_linear_199_7004" x1="3" y1="13.5" x2="4" y2="13.5" gradientUnits="userSpaceOnUse">
<stop stop-color="#EEA7FF"/>
<stop offset="0.5" stop-color="#7DA8FE"/>
<stop offset="1" stop-color="#6B72FF"/>
</linearGradient>
<linearGradient id="paint5_linear_199_7004" x1="2.25024" y1="13.8965" x2="3.75024" y2="13.8965" gradientUnits="userSpaceOnUse">
<stop stop-color="#EEA7FF"/>
<stop offset="0.5" stop-color="#7DA8FE"/>
<stop offset="1" stop-color="#6B72FF"/>
</linearGradient>
<clipPath id="clip0_199_7004">
<rect width="18" height="18" fill="white"/>
</clipPath>
</defs>
</svg>
