<svg width="24" height="24" viewBox="0 0 24 24" fill="none" xmlns="http://www.w3.org/2000/svg">
<path d="M3 11L21 6V18L3 14V11Z" stroke="#C6C6C6" stroke-width="1.5" stroke-linecap="round" stroke-linejoin="round"/>
<path d="M11.6 16.7992C11.4949 17.1801 11.3159 17.5365 11.0731 17.8481C10.8303 18.1597 10.5285 18.4205 10.1849 18.6155C9.84132 18.8105 9.4627 18.9359 9.07065 18.9846C8.6786 19.0333 8.28081 19.0043 7.89997 18.8992C7.51914 18.7942 7.16273 18.6151 6.85109 18.3723C6.53945 18.1295 6.27868 17.8277 6.08368 17.4841C5.88867 17.1406 5.76325 16.7619 5.71457 16.3699C5.6659 15.9778 5.69492 15.5801 5.79997 15.1992" stroke="#C6C6C6" stroke-width="1.5" stroke-linecap="round" stroke-linejoin="round"/>
</svg>
