<svg width="16" height="16" viewBox="0 0 16 16" fill="none" xmlns="http://www.w3.org/2000/svg">
<g clip-path="url(#clip0_538_1334)">
<path d="M11.9999 14.6667H2.66659C2.31296 14.6667 1.97382 14.5262 1.72378 14.2761C1.47373 14.0261 1.33325 13.687 1.33325 13.3333V4" stroke="#EDEDED" stroke-linecap="round" stroke-linejoin="round"/>
<path d="M14.6666 8.66653L13.8026 7.80253C13.5013 7.50127 13.0927 7.33203 12.6666 7.33203C12.2405 7.33203 11.8319 7.50127 11.5306 7.80253L7.33325 11.9999" stroke="#EDEDED" stroke-linecap="round" stroke-linejoin="round"/>
<path d="M8.00008 6.66667C8.73646 6.66667 9.33341 6.06971 9.33341 5.33333C9.33341 4.59695 8.73646 4 8.00008 4C7.2637 4 6.66675 4.59695 6.66675 5.33333C6.66675 6.06971 7.2637 6.66667 8.00008 6.66667Z" stroke="#EDEDED" stroke-linecap="round" stroke-linejoin="round"/>
<path d="M13.3333 1.33398H5.33333C4.59695 1.33398 4 1.93094 4 2.66732V10.6673C4 11.4037 4.59695 12.0007 5.33333 12.0007H13.3333C14.0697 12.0007 14.6667 11.4037 14.6667 10.6673V2.66732C14.6667 1.93094 14.0697 1.33398 13.3333 1.33398Z" stroke="#EDEDED" stroke-linecap="round" stroke-linejoin="round"/>
</g>
<defs>
<clipPath id="clip0_538_1334">
<rect width="16" height="16" fill="white"/>
</clipPath>
</defs>
</svg>
